<?xml version="1.0" encoding="utf-8"?>
<!-- Generator: Adobe Illustrator 24.1.2, SVG Export Plug-In . SVG Version: 6.00 Build 0)  -->
<svg version="1.1" id="Layer_1" xmlns="http://www.w3.org/2000/svg" xmlns:xlink="http://www.w3.org/1999/xlink" x="0px" y="0px"
	 viewBox="0 0 128 128" style="enable-background:new 0 0 128 128;" xml:space="preserve">
<style type="text/css">
	.st0{fill:#76459B;}
</style>
<path class="st0" d="M0,26.9c0-0.2,0-0.3,0-0.5c0.4,0,0.7-0.1,1.1-0.1c17.3-3.7,34.5-7.3,51.8-11c19-4,38-8.1,57-12.1
	c2.8-0.6,5.6-1.2,8.5-1.8c2.3,8.6,4.5,17.1,6.8,25.7c-26,5.5-51.9,11-77.7,16.5c0,0.1,0,0.2,0,0.3c26.5,0,53,0,79.4,0
	c0,27.9,0,55.7,0,83.5c-40.5,0-80.9,0-121.5,0c0-0.5,0-0.9,0-1.4c0-24.5,0-49,0-73.6c0-3.5-0.3-6.9-1.3-10.2c-0.4-1.2-0.6-2.4-1-3.6
	C2.1,34.6,1.1,30.8,0,26.9z M119.4,70.4c-35.4,0-70.8,0-106.2,0c0,16.5,0,32.9,0,49.2c35.4,0,70.8,0,106.2,0
	C119.4,103.2,119.4,86.9,119.4,70.4z M12.3,43.3c2.8-0.6,5.6-1.2,8.3-1.8c0.3-0.1,0.7-0.4,0.8-0.6c1.8-4,3.6-8.1,5.5-12.3
	c-5.9,1.3-11.6,2.5-17.4,3.7C10.4,36,11.3,39.6,12.3,43.3z M119.4,51.4c-1.7,0-3.2,0-4.7,0c-0.7,0-1.2,0.2-1.7,0.8
	c-2.6,3.3-5.3,6.6-7.9,9.9c-0.2,0.2-0.3,0.4-0.4,0.7c4.9,0,9.7,0,14.6,0C119.4,58.9,119.4,55.2,119.4,51.4z M13.2,62.8
	c1.7,0,3.2,0.1,4.7,0c0.6,0,1.3-0.4,1.6-0.8c1.9-2.2,3.6-4.5,5.4-6.7c1-1.2,1.9-2.4,3-3.7c-5,0-9.9,0-14.7,0
	C13.2,55.3,13.2,59,13.2,62.8z M115.8,21.3c-1-3.7-2-7.4-2.9-11c-1.6,0.3-3,0.6-4.4,1c-0.5,0.1-1.1,0.6-1.3,1
	c-1.6,3.5-3.2,7.1-4.7,10.6c-0.2,0.4-0.3,0.8-0.5,1.3C106.6,23.2,111.2,22.3,115.8,21.3z M47.6,62.8c3.1,0,6,0,8.8,0
	c0.4,0,0.8-0.4,1.1-0.7c1.5-1.8,3-3.7,4.4-5.5c1.3-1.7,2.7-3.3,4.1-5.2c-1.9,0-3.7,0.2-5.3,0c-2.9-0.4-4.8,0.6-6.4,3
	C52.3,57.3,49.9,59.9,47.6,62.8z M28.6,62.8c2.3,0,4.3-0.2,6.3,0c2.2,0.2,3.6-0.5,4.8-2.3c2.2-3.1,4.7-6,7.2-9.2c-3.1,0-6,0-8.9,0
	c-0.3,0-0.7,0.4-0.9,0.7c-2.3,2.8-4.5,5.6-6.7,8.4C29.9,61.2,29.3,61.9,28.6,62.8z M66.6,62.8c2.2,0,4.1-0.2,5.9,0
	c2.4,0.3,4-0.5,5.4-2.6c2.1-3,4.6-5.8,7-8.9c-3.1,0-5.9,0-8.7,0c-0.4,0-0.8,0.4-1,0.7c-1.9,2.3-3.8,4.7-5.7,7
	C68.6,60.3,67.7,61.5,66.6,62.8z M104,51.4c-3.1,0-6,0-8.8,0c-0.3,0-0.7,0.3-1,0.6c-2.7,3.3-5.3,6.6-7.9,9.9
	c-0.2,0.2-0.3,0.5-0.5,0.9c3,0,5.7,0,8.5,0c0.3,0,0.7-0.2,0.9-0.4C98.1,58.8,100.9,55.2,104,51.4z M30.4,39.4c3-0.6,5.7-1.2,8.4-1.8
	c0.2,0,0.4-0.3,0.5-0.5c1.8-4.1,3.6-8.1,5.5-12.4c-1.9,0.4-3.7,0.9-5.5,1.1c-2.5,0.2-4,1.3-4.6,3.7c-0.3,1.1-0.9,2-1.3,3.1
	C32.4,34.8,31.4,37,30.4,39.4z M66.1,31.8c2.8-0.6,5.3-1.1,7.8-1.7c0.5-0.1,1.1-0.6,1.3-1.1c1.6-3.5,3.1-7,4.7-10.5
	c0.1-0.3,0.2-0.7,0.4-1.1c-0.4,0-0.7-0.1-0.9-0.1c-2.4,0.5-4.8,1-7.3,1.5c-0.2,0-0.4,0.3-0.5,0.4C69.8,23.5,68,27.5,66.1,31.8z
	 M62.5,21.2c-0.4,0-0.6-0.1-0.8,0c-2.4,0.5-4.9,1-7.3,1.5c-0.3,0.1-0.6,0.5-0.8,0.8c-0.8,1.8-1.6,3.5-2.4,5.3c-1,2.2-1.9,4.4-3,6.8
	c2.9-0.6,5.6-1.2,8.3-1.8c0.3-0.1,0.6-0.5,0.8-0.8c1-2.1,1.9-4.2,2.8-6.3C60.9,24.9,61.6,23.2,62.5,21.2z M98.4,13.4
	c-2.9,0.6-5.6,1.2-8.3,1.8c-0.3,0.1-0.6,0.5-0.8,0.8c-0.9,2.1-1.8,4.1-2.8,6.2c-0.8,1.9-1.6,3.7-2.6,5.8c2.9-0.6,5.6-1.2,8.3-1.8
	c0.3-0.1,0.6-0.5,0.7-0.8C94.8,21.5,96.5,17.6,98.4,13.4z"/>
<path class="st0" d="M47.3,100.8c0-3.9,0-7.6,0-11.4c-3.8,0-7.5,0-11.2,0c0-2.6,0-5.1,0-7.6c20.2,0,40.4,0,60.6,0c0,2.5,0,5,0,7.5
	c-3.7,0-7.5,0-11.3,0c0,3.8,0,7.5,0,11.4c3.7,0,7.5,0,11.3,0c0,2.6,0,5,0,7.5c-20.2,0-40.4,0-60.6,0c0-2.4,0-4.9,0-7.4
	C39.7,100.8,43.4,100.8,47.3,100.8z M54.9,100.7c7.6,0,15.2,0,22.7,0c0-3.8,0-7.6,0-11.3c-7.6,0-15.1,0-22.7,0
	C54.9,93.2,54.9,96.9,54.9,100.7z"/>
</svg>
