<svg version="1.1" id="Layer" x="0px" y="0px" viewBox="0 0 100 100">
<style type="text/css">
	.st0{fill:#FFFFFF;}
</style>
<g id="Shape">
	<path class="st0" d="M27.8,35.4L8.1,85.9h7.5l4.8-12.4h21.3l4.9,12.4h7.5L34.3,35.4H27.8z M23.2,66.5l7.9-20.2l8,20.2H23.2z"/>
	<path class="st0" d="M87.5,30.2h8v-7H74.2l-8.4-11.6l-5.7,4.1l5.4,7.6H44.7v7h7.7c0.3,5.6,1.6,15.1,9.4,23.7
		c-3.3,2.1-7.2,4.3-11.8,6.6l3.1,6.3c5.5-2.8,10.1-5.4,14-8c4.8,3.7,11.1,7.1,19.5,9.7l2.1-6.7c-6.6-2-11.7-4.6-15.6-7.3
		C84.4,45.1,86.3,37,87.5,30.2z M67.7,49.8c-6.7-7-7.9-14.6-8.2-19.6h20.9C79.3,36.1,77.3,42.3,67.7,49.8z"/>
</g>
</svg>
