<svg version="1.1" id="Layer" x="0px" y="0px" viewBox="0 0 100 100">
<style type="text/css">
	.st0{fill:#FFFFFF;}
</style>
<g id="Shape">
	<path class="st0" d="M51.3,10.8v42.6h37.6V10.8H51.3z M86.4,26.2h-5.1c-0.8,4.4-2,9.5-9.2,15.6c2.5,1.7,5.8,3.4,10,4.7l-1.3,4.3
		c-5.4-1.7-9.4-3.8-12.5-6.2c-2.5,1.7-5.4,3.3-9,5.1l-2-4c2.9-1.5,5.4-2.9,7.6-4.2c-5-5.5-5.8-11.6-6-15.2h-4.9v-4.5h13.3l-3.5-4.9
		l3.6-2.6l5.4,7.4h13.6V26.2z"/>
	<path class="st0" d="M68.6,38.7c6.1-4.8,7.4-8.8,8.1-12.5H63.3C63.5,29.4,64.3,34.2,68.6,38.7z"/>
	<path class="st0" d="M11.1,87.9h34.6V50.5H11.1V87.9z M26.3,53.1h4.2l12.7,32.3h-4.8l-3.1-7.9H21.6l-3.1,7.9h-4.8L26.3,53.1z"/>
	<polygon class="st0" points="28.4,60 23.3,73 33.5,73 	"/>
	<path class="st0" d="M39.2,23.2c-14.3,1.7-21.8,12.2-21.8,22.5h7c0-6.9,4.6-13.9,14.8-15.5V36l9.5-9.5l-9.5-9.5V23.2z"/>
</g>
</svg>
